# xmcd
#
# Track frame offsets:
#	150
#	15666
#	30124
#	50878
#	71702
#	85796
#	109233
#	130059
#	150694
#	167794
#	183606
#
# Disc length: 2905 seconds
#
# Revision: 0
# Processed by: cddbd v1.5.2PL0 Copyright (c) Steve Scherf et al.
# Submitted via: dBpowerAMP V4.0
#
DISCID=8d0b570b
DTITLE=Danny Flowers - Tools For the Soul
DYEAR=2007
DGENRE=Acoustic Blues
TTITLE0=Tools for the Soul (feat. Emmylou Harris)
TTITLE1=Keep on Livin'
TTITLE2=Reason to Try
TTITLE3=Born to Believe
TTITLE4=At the Open Door
TTITLE5=What Would the Father Say
TTITLE6=Prayer Song (feat. Emmylou Harris)
TTITLE7=Ready to Cross Over
TTITLE8=Ungodly
TTITLE9=World Enough and Time
TTITLE10=I was a Burden
EXTD=
EXTT0=
EXTT1=
EXTT2=
EXTT3=
EXTT4=
EXTT5=
EXTT6=
EXTT7=
EXTT8=
EXTT9=
EXTT10=
PLAYORDER=
